<svg width="48" height="48" viewBox="0 0 48 48" fill="none" xmlns="http://www.w3.org/2000/svg" role="img" aria-labelledby="title desc">
  <title id="title">Veyra V icon</title>
  <desc id="desc">A calm two-petal V mark in dark teal and soft aqua.</desc>

  <path
    d="M14 6C10.4 6 8 8.9 8 12.8C8 16.7 9.8 21.5 12.1 26.3C14.8 31.9 16.8 38.3 23.4 41.3C19 33.5 18.9 22.6 18 15.8C17.4 11.2 16.3 6 14 6Z"
    fill="#0F766E"
  />
  <path
    d="M34.8 6C37.8 6 40 8.5 40 12.2C40 16.4 38.4 21.4 36 26.3C33.2 32.1 31.4 38.5 24.6 41.5C29 33.4 29.1 22.4 30 15.7C30.7 10.9 31.8 6 34.8 6Z"
    fill="#A8D5D1"
    fill-opacity="0.96"
  />
  <path
    d="M21.9 40.9C22.6 41.4 23.3 41.7 24 42C24.7 41.7 25.4 41.4 26.1 40.9C24.7 40.7 23.3 40.7 21.9 40.9Z"
    fill="#0B3B40"
    fill-opacity="0.72"
  />
</svg>
